<svg fill="#000000" xmlns="http://www.w3.org/2000/svg" viewBox="0 0 80 80" width="100px" height="100px"><path d="M 43.232422 7 A 1.0001 1.0001 0 0 0 42.373047 8.5136719 L 44.75 12.476562 C 41.782541 10.831555 37.243849 8.7577289 30.392578 8.4316406 A 1.0001 1.0001 0 0 0 29.53125 10.011719 C 30.549583 11.436617 31.124839 12.923379 31.529297 14.162109 C 28.977078 12.697934 26.492189 12.460715 24.386719 12.876953 C 21.639275 13.420105 19.511616 14.934201 18.318359 15.769531 A 1.0001 1.0001 0 0 0 18.777344 17.582031 C 20.131344 17.736 21.308664 18.129704 22.363281 18.595703 C 15.879225 18.992059 11.891492 23.533277 10.765625 27.785156 A 1.0001 1.0001 0 0 0 12.154297 28.949219 C 12.40955 28.830148 13.097631 28.878579 13.626953 28.839844 L 11.285156 30.009766 A 1.0001 1.0001 0 0 0 10.931641 31.505859 L 15.027344 36.964844 L 15.027344 44.105469 C 13.68745 43.322531 12.121962 42.792969 10.300781 42.792969 C 8.2171323 42.792969 6.7140364 43.427427 5.8652344 44.523438 C 5.0164324 45.619447 4.8998497 46.977041 5.03125 48.195312 C 5.2940506 50.631856 6.5605469 52.863281 6.5605469 52.863281 A 1.0001 1.0001 0 0 0 6.5625 52.869141 C 6.5625 52.869141 7.75696 55.015285 9.46875 57.205078 C 10.324645 58.299975 11.309656 59.412333 12.386719 60.300781 C 13.463782 61.189229 14.642858 61.890332 15.966797 61.970703 C 18.090898 62.099649 19.584795 61.683509 20.585938 60.917969 C 20.703505 60.828069 20.810392 60.73373 20.912109 60.636719 C 21.341507 62.603612 21.792726 64.481031 22.255859 65.638672 C 22.724469 66.81 23.807723 67.701197 25.257812 68.693359 C 26.707902 69.685522 28.55516 70.68638 30.587891 71.59375 C 34.653353 73.40849 39.420783 74.857422 43.228516 74.857422 C 52.519431 74.857422 57.814453 73.388672 57.814453 73.388672 A 1.0001 1.0001 0 0 0 58.455078 72.84375 C 58.455078 72.84375 59.678607 70.186193 61.007812 67.244141 C 62.337018 64.302088 63.749595 61.138694 64.210938 59.886719 C 65.029286 57.665904 64.522307 55.955563 64.318359 55.357422 L 69.914062 42.767578 A 1.0001 1.0001 0 0 0 69.990234 42.21875 L 68.591797 32.425781 C 68.813792 31.783827 70 28.17003 70 23.748047 C 70 16.056658 63.980469 10.15625 63.980469 10.15625 A 1.0001 1.0001 0 0 0 62.28125 10.742188 C 62.28125 10.742188 62.104283 12.186193 61.839844 13.787109 C 61.760714 14.266175 61.663766 14.719071 61.572266 15.1875 C 60.52678 13.132131 58.795696 10.490953 55.154297 8.5488281 A 1.0001 1.0001 0 0 0 53.683594 9.4316406 L 53.683594 12.369141 C 53.395774 12.064421 53.251528 11.825347 52.882812 11.5 C 50.991394 9.831053 47.958491 7.950062 43.431641 7.0195312 A 1.0001 1.0001 0 0 0 43.232422 7 z M 45.490234 9.8222656 C 48.166455 10.735714 50.293976 11.882406 51.560547 13 C 53.218627 14.463053 53.792969 15.613281 53.792969 15.613281 A 1.0001 1.0001 0 0 0 55.683594 15.158203 L 55.683594 11.425781 C 59.408489 14.225283 60.886719 18.320312 60.886719 18.320312 A 1.0001 1.0001 0 0 0 62.71875 18.501953 C 63.01377 17.961358 63.166464 17.339609 63.341797 16.574219 C 63.517129 15.808829 63.67622 14.938323 63.8125 14.113281 C 63.87752 13.719622 63.86654 13.723553 63.919922 13.367188 C 65.446535 15.236064 68 18.773999 68 23.748047 C 68 27.064597 67.239352 30.012808 66.851562 31.302734 C 66.454304 31.286115 66.119621 31.275762 65.056641 31.214844 A 1.0001 1.0001 0 0 0 64.957031 31.212891 A 1.0001 1.0001 0 0 0 64.517578 31.318359 L 64.419922 31.214844 L 64.074219 31.152344 L 63.273438 31.552734 L 63.115234 32.435547 L 63.726562 33.089844 L 64.074219 33.152344 L 64.359375 33.009766 A 1.0001 1.0001 0 0 0 64.943359 33.212891 C 65.97756 33.272161 66.273147 33.279315 66.695312 33.296875 L 67.96875 42.216797 L 67.716797 42.783203 C 67.345265 42.617845 65.121747 41.638277 63.386719 41.371094 A 1.0001 1.0001 0 0 0 63.384766 41.371094 C 62.731257 41.270875 62.071805 41.367494 61.28125 41.498047 C 60.490695 41.628564 59.61885 41.820715 58.798828 42.019531 C 57.158785 42.417164 55.724609 42.84375 55.724609 42.84375 A 1.0001 1.0001 0 1 0 56.292969 44.759766 C 56.292969 44.759766 56.612249 44.675242 56.650391 44.664062 C 55.787686 45.386756 55.175781 46.128906 55.175781 46.128906 A 1.0001 1.0001 0 0 0 55.009766 46.615234 C 55.009766 46.615234 54.861742 48.538435 55.613281 50.548828 C 56.353188 52.528104 58.193615 54.685792 61.591797 54.880859 C 61.686995 54.915778 61.932294 54.977694 62.302734 55.005859 A 1.0001 1.0001 0 0 0 62.347656 55.626953 C 62.347656 55.626953 63.027233 57.313989 62.333984 59.195312 C 62.211101 59.52879 61.846083 60.367146 61.533203 61.097656 C 61.466026 60.92546 61.423936 60.829858 61.345703 60.621094 C 61.029641 59.778263 60.508226 59.073133 59.759766 58.777344 C 59.011306 58.481554 58.29994 58.556083 57.455078 58.632812 C 55.765355 58.786273 53.340108 59.13029 49.091797 58.548828 C 42.769133 57.683474 38.17388 56.580509 36.130859 56.044922 A 1.0001 1.0001 0 0 0 35.482422 55.84375 A 1.0001 1.0001 0 0 0 35.404297 55.851562 C 35.248369 55.807513 34.923828 55.71875 34.923828 55.71875 A 1.0001 1.0001 0 0 0 33.931641 55.970703 L 30.160156 59.742188 C 27.204733 58.468034 24.697852 54.455079 24.097656 53.386719 C 24.051489 53.256779 23.554891 51.854778 23.126953 50.128906 C 22.902902 49.225308 22.708711 48.25728 22.621094 47.417969 C 22.533474 46.578657 22.587629 45.857572 22.693359 45.570312 L 22.691406 45.570312 C 23.506224 43.359083 25.541016 38.449219 25.541016 38.449219 A 1.0001 1.0001 0 0 0 25.324219 37.359375 C 25.324219 37.359375 25.093289 37.141552 24.794922 36.544922 C 24.496555 35.948291 24.185547 35.036259 24.185547 33.771484 C 24.185547 33.507184 24.508228 32.716568 25.222656 31.861328 C 25.937084 31.006089 26.972753 30.062424 28.123047 29.205078 C 30.423635 27.490386 33.305257 26.181641 34.638672 26.181641 C 35.083885 26.181641 35.863289 26.281051 36.804688 26.46875 A 1.0001 1.0001 0 1 0 37.195312 24.507812 C 36.190711 24.307513 35.345459 24.181641 34.638672 24.181641 C 32.273086 24.181641 29.429397 25.735051 26.927734 27.599609 C 25.676903 28.531888 24.542728 29.556286 23.6875 30.580078 C 22.832272 31.60387 22.185547 32.604285 22.185547 33.771484 C 22.185547 35.369709 22.588227 36.604334 23.005859 37.439453 C 23.233979 37.895612 23.321522 37.939033 23.5 38.167969 C 23.259573 38.748555 21.614032 42.714331 20.816406 44.878906 C 20.505132 45.724647 20.528164 46.643202 20.630859 47.626953 C 20.733555 48.610704 20.949302 49.648723 21.1875 50.609375 C 21.484172 51.80585 21.633308 52.169968 21.845703 52.814453 L 21.753906 52.814453 A 1.0001 1.0001 0 0 0 21.421875 52.867188 C 21.389272 52.678171 21.308594 52.216797 21.308594 52.216797 A 1.000202 1.000202 0 0 0 21.306641 52.210938 A 1.0006407 1.0006407 0 0 0 21.289062 52.123047 A 1.0006407 1.0006407 0 0 0 21.287109 52.119141 A 1.000202 1.000202 0 0 0 21.287109 52.117188 A 1.0006407 1.0006407 0 0 0 21.267578 52.054688 C 21.267578 52.054688 21.258284 52.028693 21.257812 52.027344 C 21.257742 52.027142 21.25594 52.02367 21.255859 52.023438 A 1.000202 1.000202 0 0 0 21.253906 52.019531 C 21.219219 51.920471 20.439553 49.719078 18.748047 47.484375 C 18.249781 46.8261 17.652436 46.16467 16.976562 45.546875 A 1.0001 1.0001 0 0 0 17.027344 45.222656 L 17.027344 36.632812 A 1.0001 1.0001 0 0 0 16.826172 36.03125 L 13.25 31.263672 L 17.90625 28.935547 A 1.0001 1.0001 0 0 0 17.666016 27.064453 C 17.666016 27.064453 16.62903 26.84263 15.353516 26.732422 C 14.737283 26.679172 14.066401 26.640038 13.396484 26.673828 C 14.841052 23.501812 17.978883 20.451172 23.185547 20.451172 A 1.0001 1.0001 0 0 0 23.265625 20.449219 C 23.265625 20.449219 23.898226 20.399224 24.679688 20.527344 C 25.441333 20.652209 26.220403 20.972251 26.644531 21.476562 C 26.647431 21.479762 26.738281 21.554688 26.738281 21.554688 A 1.0001 1.0001 0 0 0 28.267578 20.265625 C 28.251588 20.245275 28.227197 20.242536 28.210938 20.222656 L 28.222656 20.212891 C 28.222656 20.212891 25.576195 17.473084 21.363281 16.207031 C 22.356676 15.632984 23.475493 15.094872 24.775391 14.837891 C 27.014196 14.395293 29.589194 14.704631 32.542969 17.335938 A 1.0001 1.0001 0 0 0 34.201172 16.464844 C 34.201172 16.464844 33.799412 13.711496 32.246094 10.738281 C 40.843629 11.741298 46.933594 15.964844 46.933594 15.964844 A 1.0001 1.0001 0 0 0 48.382812 14.642578 L 45.490234 9.8222656 z M 23.185547 18.451172 C 23.172537 18.451172 23.163381 18.456931 23.150391 18.457031 C 23.149437 18.457106 23.105469 18.455078 23.105469 18.455078 L 23.185547 18.451172 z M 40.882812 25.445312 L 40.082031 25.845703 L 39.923828 26.728516 L 40.535156 27.382812 L 40.882812 27.445312 L 41.683594 27.042969 L 41.841797 26.162109 L 41.230469 25.507812 L 40.882812 25.445312 z M 44.722656 26.566406 L 43.921875 26.966797 L 43.763672 27.849609 L 44.375 28.503906 L 44.722656 28.566406 L 45.523438 28.164062 L 45.681641 27.283203 L 45.068359 26.628906 L 44.722656 26.566406 z M 48.529297 27.791016 L 47.728516 28.191406 L 47.570312 29.074219 L 48.183594 29.728516 L 48.529297 29.791016 L 49.332031 29.388672 L 49.488281 28.507812 L 48.876953 27.851562 L 48.529297 27.791016 z M 52.320312 29.066406 L 51.519531 29.46875 L 51.361328 30.351562 L 51.974609 31.005859 L 52.320312 31.066406 L 53.121094 30.666016 L 53.279297 29.783203 L 52.667969 29.128906 L 52.320312 29.066406 z M 56.126953 30.28125 L 55.326172 30.683594 L 55.167969 31.564453 L 55.779297 32.21875 L 56.126953 32.28125 L 56.927734 31.880859 L 57.085938 30.998047 L 56.474609 30.34375 L 56.126953 30.28125 z M 60.087891 30.830078 L 59.285156 31.230469 L 59.128906 32.113281 L 59.740234 32.767578 L 60.087891 32.830078 L 60.888672 32.427734 L 61.046875 31.546875 L 60.433594 30.892578 L 60.087891 30.830078 z M 31.775391 32.771484 A 1.0001 1.0001 0 1 0 31.775391 34.771484 C 34.407923 34.771484 36.655068 35.230225 38.613281 35.890625 C 38.24237 35.828495 37.86794 35.634766 37.501953 35.634766 C 34.815939 35.634766 33.037466 36.912096 32.060547 38.167969 C 31.083627 39.423841 30.798828 40.712891 30.798828 40.712891 A 1.0001 1.0001 0 0 0 30.779297 40.845703 C 30.779297 40.845703 30.540915 43.504168 31.404297 46.240234 C 31.835988 47.608268 32.55291 49.030641 33.775391 50.128906 C 34.997871 51.227172 36.726369 51.951172 38.933594 51.951172 C 38.933594 51.951172 39.987528 51.952272 41.273438 51.761719 C 42.559345 51.571174 44.110892 51.240193 45.285156 50.300781 C 46.427678 49.386764 47.380324 47.852959 48.042969 46.285156 C 48.374291 45.501255 48.621533 44.71387 48.722656 43.964844 C 48.750496 43.758661 48.733541 43.554038 48.738281 43.347656 A 1.0001 1.0001 0 0 0 49.808594 41.839844 C 49.808594 41.839844 44.185413 32.771484 31.775391 32.771484 z M 37.501953 37.634766 C 37.944224 37.634766 38.477012 37.745555 39.050781 37.923828 C 38.945278 37.996665 38.830944 38.052178 38.730469 38.132812 C 37.687029 38.970213 36.84277 40.223886 36.34375 41.734375 C 35.756881 43.510773 35.718044 45.071478 36.123047 46.330078 C 36.528049 47.588678 37.414708 48.539976 38.529297 48.908203 C 39.643886 49.276429 40.922978 49.041113 41.998047 48.271484 C 43.073115 47.501855 43.969773 46.223664 44.556641 44.447266 C 44.910151 43.377223 45.038749 42.312987 44.96875 41.320312 C 45.113679 41.437347 45.280637 41.562156 45.412109 41.673828 C 46.08369 42.244266 46.58721 42.77374 46.714844 42.949219 C 46.697484 42.925369 46.806704 43.204917 46.740234 43.697266 C 46.673764 44.189614 46.481225 44.843261 46.201172 45.505859 C 45.641067 46.831056 44.684588 48.220299 44.037109 48.738281 C 43.421374 49.23087 42.11056 49.615748 40.980469 49.783203 C 39.850377 49.950659 38.933594 49.951172 38.933594 49.951172 C 37.144318 49.951172 35.980504 49.421485 35.111328 48.640625 C 34.242152 47.859765 33.669481 46.776139 33.310547 45.638672 C 32.616192 43.438252 32.76128 41.253942 32.771484 41.107422 C 32.780084 41.070462 32.960518 40.266328 33.638672 39.394531 C 34.332252 38.502904 35.415967 37.634766 37.501953 37.634766 z M 41.363281 39.113281 C 41.497687 39.114809 41.625073 39.134492 41.744141 39.173828 C 42.220411 39.331173 42.630099 39.795713 42.851562 40.640625 C 43.073026 41.485538 43.047255 42.642688 42.658203 43.820312 C 42.173074 45.288753 41.478852 46.184831 40.833984 46.646484 C 40.189117 47.108136 39.620244 47.163056 39.15625 47.009766 C 38.692254 46.856476 38.268328 46.473706 38.025391 45.71875 C 37.782455 44.963793 37.759012 43.831722 38.244141 42.363281 C 38.633193 41.185655 39.299258 40.240055 39.980469 39.693359 C 40.491376 39.283337 40.960065 39.108699 41.363281 39.113281 z M 66.789062 44.589844 C 66.802276 44.595248 66.852398 44.611353 66.898438 44.626953 L 66.859375 44.714844 C 66.832931 44.673755 66.817128 44.630397 66.789062 44.589844 z M 10.300781 44.792969 C 13.414058 44.792969 15.633617 46.682387 17.154297 48.691406 C 18.608328 50.612374 19.294466 52.485576 19.353516 52.650391 C 19.378069 52.795282 19.753512 54.984255 20.273438 57.623047 A 1.0001 1.0001 0 0 0 20.173828 57.931641 C 20.082498 58.435097 19.891202 58.930416 19.371094 59.328125 C 18.850986 59.725834 17.900789 60.084663 16.087891 59.974609 C 15.443333 59.935441 14.562812 59.502396 13.660156 58.757812 C 12.757501 58.01323 11.842449 56.995385 11.042969 55.972656 C 9.4440085 53.9272 8.3105469 51.896484 8.3105469 51.896484 C 8.3051002 51.886193 7.2214317 49.834271 7.0214844 47.980469 C 6.9212597 47.05124 7.0467707 46.262661 7.4453125 45.748047 C 7.8438543 45.233432 8.5949306 44.792969 10.300781 44.792969 z M 63.517578 44.943359 C 64.11165 45.048474 64.5423 45.196577 64.800781 45.353516 C 65.261735 45.633386 65.342896 45.853151 65.384766 46.238281 C 65.426636 46.623412 65.321586 47.171566 65.152344 47.708984 C 64.983104 48.246402 64.761523 48.700839 64.658203 49.269531 C 64.582843 49.680476 64.158026 50.740934 63.693359 51.597656 C 63.46086 52.026324 63.21721 52.422424 63.019531 52.695312 C 62.927438 52.822444 62.818589 52.911577 62.755859 52.964844 C 62.563675 52.976433 62.0625 52.931641 62.0625 52.931641 A 1.0001 1.0001 0 0 0 61.826172 52.894531 C 59.066753 52.788315 58.059538 51.381013 57.486328 49.847656 C 56.964501 48.451752 57.039349 47.274437 57.048828 47.03125 C 57.162162 46.873303 57.528669 46.40303 58.162109 45.935547 C 58.052038 46.443201 58 46.970635 58 47.5 C 58 48.501984 58.174458 49.503131 58.609375 50.359375 C 59.044292 51.215619 59.895833 52 61 52 C 62.104167 52 62.955708 51.215619 63.390625 50.359375 C 63.825542 49.503131 64 48.501984 64 47.5 C 64 46.611594 63.851821 45.730031 63.517578 44.943359 z M 61 45 C 61.229166 45 61.377626 45.09062 61.609375 45.546875 C 61.841124 46.003131 62 46.751984 62 47.5 C 62 48.248016 61.841124 48.996869 61.609375 49.453125 C 61.377626 49.909381 61.229166 50 61 50 C 60.770834 50 60.622374 49.909381 60.390625 49.453125 C 60.158876 48.996869 60 48.248016 60 47.5 C 60 46.751984 60.158876 46.003131 60.390625 45.546875 C 60.622374 45.090619 60.770834 45 61 45 z M 13.164062 48.519531 C 12.114729 48.519531 11.313882 49.190595 11.015625 49.787109 C 10.717368 50.383623 10.732422 50.951172 10.732422 50.951172 A 1.0001 1.0001 0 1 0 12.732422 50.951172 C 12.732422 50.951172 12.744938 50.801127 12.804688 50.681641 C 12.864427 50.562155 12.781399 50.519531 13.164062 50.519531 C 13.265889 50.519531 13.420045 50.574541 13.667969 50.853516 C 13.915893 51.132487 14.18297 51.591887 14.396484 52.072266 C 14.823512 53.033023 15.050781 54.03125 15.050781 54.03125 A 1.0003376 1.0003376 0 1 0 17.003906 53.597656 C 17.003906 53.597656 16.752081 52.446509 16.224609 51.259766 C 15.960873 50.666394 15.631827 50.051732 15.164062 49.525391 C 14.6963 48.999049 14.016237 48.519531 13.164062 48.519531 z M 51.357422 49 A 1.0001 1.0001 0 0 0 51.361328 50.998047 C 51.361328 50.998047 51.824828 51.032907 52.255859 51.25 C 52.686897 51.467097 53 51.669539 53 52.484375 C 53 53.306732 52.813071 53.704364 52.220703 53.90625 C 51.628335 54.108136 50.242865 54.021549 47.988281 52.841797 A 1.0001 1.0001 0 1 0 47.060547 54.613281 C 49.554963 55.918529 51.407352 56.295692 52.865234 55.798828 C 54.323117 55.301964 55 53.836018 55 52.484375 C 55 50.938211 54.018265 49.899997 53.154297 49.464844 C 52.290329 49.029691 51.457031 49.001953 51.457031 49.001953 A 1.0001 1.0001 0 0 0 51.357422 49 z M 21.777344 54.814453 L 22.609375 54.814453 C 23.493853 56.402656 26.007149 60.664557 30.046875 61.925781 A 1.0001 1.0001 0 0 0 31.050781 61.679688 L 34.833984 57.896484 L 37.988281 67.027344 A 1.0001 1.0001 0 0 0 39.205078 67.662109 C 39.205078 67.662109 40.87048 67.196327 42.931641 66.787109 C 44.992122 66.378026 47.489603 66.063343 48.808594 66.257812 C 51.955071 66.723776 55.878906 67.671875 55.878906 67.671875 A 1.0001 1.0001 0 0 0 57.056641 67.03125 L 59.240234 60.824219 C 59.304099 60.918154 59.373305 61.05212 59.474609 61.322266 L 59.472656 61.322266 C 59.931305 62.546176 60.207139 63.166087 60.400391 63.533203 C 60.415115 63.561174 60.429643 63.574311 60.443359 63.599609 C 60.026939 64.537897 59.617137 65.466598 59.185547 66.421875 C 57.969836 69.112718 57.028264 71.15676 56.849609 71.544922 C 56.300083 71.690947 51.774659 72.857422 43.228516 72.857422 C 39.948248 72.857422 35.290585 71.502338 31.404297 69.767578 C 29.461153 68.900198 27.701176 67.940994 26.388672 67.042969 C 25.076168 66.144944 24.241171 65.216156 24.113281 64.896484 C 23.598812 63.610526 22.850441 60.343663 22.287109 57.511719 C 22.082277 56.481998 21.930165 55.645944 21.777344 54.814453 z M 37.105469 58.34375 C 39.39124 58.909294 43.3103 59.777095 48.820312 60.53125 C 52.917977 61.092097 55.533301 60.827428 57.173828 60.667969 L 55.457031 65.550781 C 54.664974 65.362263 51.991314 64.707242 49.101562 64.279297 C 47.19921 63.998167 44.687558 64.398437 42.542969 64.824219 C 40.90705 65.14901 40.154632 65.366902 39.583984 65.519531 L 37.105469 58.34375 z"/></svg>